<mxfile host="app.diagrams.net" agent="Mozilla/5.0 (Windows NT 10.0; Win64; x64) AppleWebKit/537.36 (KHTML, like Gecko) Chrome/130.0.0.0 Safari/537.36" modified="2024-10-27T23:34:33.420Z" version="24.2.2" etag="XwYQwegK5_rwSHmsbqJn" type="device">
  <diagram name="Страница — 1" id="bVKTpgWmOsVaOyua8NCS">
    <mxGraphModel dx="1032" dy="782" grid="1" gridSize="10" guides="1" tooltips="1" connect="1" arrows="1" fold="1" page="1" pageScale="1" pageWidth="827" pageHeight="1169" math="0" shadow="0">
      <root>
        <mxCell id="0" />
        <mxCell id="1" parent="0" />
        <mxCell id="_FC31g5Uvyz9J8IQCSE6-10" value="&lt;span style=&quot;font-weight: 400;&quot;&gt;Student&lt;/span&gt;" style="swimlane;fontStyle=1;align=center;verticalAlign=top;childLayout=stackLayout;horizontal=1;startSize=26;horizontalStack=0;resizeParent=1;resizeParentMax=0;resizeLast=0;collapsible=1;marginBottom=0;whiteSpace=wrap;html=1;" parent="1" vertex="1">
          <mxGeometry x="220" y="402" width="266" height="346" as="geometry" />
        </mxCell>
        <mxCell id="_FC31g5Uvyz9J8IQCSE6-11" value="+id" style="text;strokeColor=none;fillColor=none;align=left;verticalAlign=top;spacingLeft=4;spacingRight=4;overflow=hidden;rotatable=0;points=[[0,0.5],[1,0.5]];portConstraint=eastwest;whiteSpace=wrap;html=1;" parent="_FC31g5Uvyz9J8IQCSE6-10" vertex="1">
          <mxGeometry y="26" width="266" height="26" as="geometry" />
        </mxCell>
        <mxCell id="_FC31g5Uvyz9J8IQCSE6-17" value="+surname" style="text;strokeColor=none;fillColor=none;align=left;verticalAlign=top;spacingLeft=4;spacingRight=4;overflow=hidden;rotatable=0;points=[[0,0.5],[1,0.5]];portConstraint=eastwest;whiteSpace=wrap;html=1;" parent="_FC31g5Uvyz9J8IQCSE6-10" vertex="1">
          <mxGeometry y="52" width="266" height="26" as="geometry" />
        </mxCell>
        <mxCell id="_FC31g5Uvyz9J8IQCSE6-20" value="+name" style="text;strokeColor=none;fillColor=none;align=left;verticalAlign=top;spacingLeft=4;spacingRight=4;overflow=hidden;rotatable=0;points=[[0,0.5],[1,0.5]];portConstraint=eastwest;whiteSpace=wrap;html=1;" parent="_FC31g5Uvyz9J8IQCSE6-10" vertex="1">
          <mxGeometry y="78" width="266" height="26" as="geometry" />
        </mxCell>
        <mxCell id="_FC31g5Uvyz9J8IQCSE6-19" value="+patronymic" style="text;strokeColor=none;fillColor=none;align=left;verticalAlign=top;spacingLeft=4;spacingRight=4;overflow=hidden;rotatable=0;points=[[0,0.5],[1,0.5]];portConstraint=eastwest;whiteSpace=wrap;html=1;" parent="_FC31g5Uvyz9J8IQCSE6-10" vertex="1">
          <mxGeometry y="104" width="266" height="26" as="geometry" />
        </mxCell>
        <mxCell id="_FC31g5Uvyz9J8IQCSE6-18" value="+tg" style="text;strokeColor=none;fillColor=none;align=left;verticalAlign=top;spacingLeft=4;spacingRight=4;overflow=hidden;rotatable=0;points=[[0,0.5],[1,0.5]];portConstraint=eastwest;whiteSpace=wrap;html=1;" parent="_FC31g5Uvyz9J8IQCSE6-10" vertex="1">
          <mxGeometry y="130" width="266" height="26" as="geometry" />
        </mxCell>
        <mxCell id="_FC31g5Uvyz9J8IQCSE6-16" value="+git" style="text;strokeColor=none;fillColor=none;align=left;verticalAlign=top;spacingLeft=4;spacingRight=4;overflow=hidden;rotatable=0;points=[[0,0.5],[1,0.5]];portConstraint=eastwest;whiteSpace=wrap;html=1;" parent="_FC31g5Uvyz9J8IQCSE6-10" vertex="1">
          <mxGeometry y="156" width="266" height="26" as="geometry" />
        </mxCell>
        <mxCell id="_FC31g5Uvyz9J8IQCSE6-15" value="+email" style="text;strokeColor=none;fillColor=none;align=left;verticalAlign=top;spacingLeft=4;spacingRight=4;overflow=hidden;rotatable=0;points=[[0,0.5],[1,0.5]];portConstraint=eastwest;whiteSpace=wrap;html=1;" parent="_FC31g5Uvyz9J8IQCSE6-10" vertex="1">
          <mxGeometry y="182" width="266" height="26" as="geometry" />
        </mxCell>
        <mxCell id="_FC31g5Uvyz9J8IQCSE6-14" value="+phone" style="text;strokeColor=none;fillColor=none;align=left;verticalAlign=top;spacingLeft=4;spacingRight=4;overflow=hidden;rotatable=0;points=[[0,0.5],[1,0.5]];portConstraint=eastwest;whiteSpace=wrap;html=1;" parent="_FC31g5Uvyz9J8IQCSE6-10" vertex="1">
          <mxGeometry y="208" width="266" height="26" as="geometry" />
        </mxCell>
        <mxCell id="_FC31g5Uvyz9J8IQCSE6-12" value="" style="line;strokeWidth=1;fillColor=none;align=left;verticalAlign=middle;spacingTop=-1;spacingLeft=3;spacingRight=3;rotatable=0;labelPosition=right;points=[];portConstraint=eastwest;strokeColor=inherit;" parent="_FC31g5Uvyz9J8IQCSE6-10" vertex="1">
          <mxGeometry y="234" width="266" height="8" as="geometry" />
        </mxCell>
        <mxCell id="_FC31g5Uvyz9J8IQCSE6-22" value="+setContacts(String?,String?,String?)&lt;div&gt;&lt;br&gt;&lt;/div&gt;" style="text;strokeColor=none;fillColor=none;align=left;verticalAlign=top;spacingLeft=4;spacingRight=4;overflow=hidden;rotatable=0;points=[[0,0.5],[1,0.5]];portConstraint=eastwest;whiteSpace=wrap;html=1;" parent="_FC31g5Uvyz9J8IQCSE6-10" vertex="1">
          <mxGeometry y="242" width="266" height="26" as="geometry" />
        </mxCell>
        <mxCell id="_FC31g5Uvyz9J8IQCSE6-23" value="+validate()" style="text;strokeColor=none;fillColor=none;align=left;verticalAlign=top;spacingLeft=4;spacingRight=4;overflow=hidden;rotatable=0;points=[[0,0.5],[1,0.5]];portConstraint=eastwest;whiteSpace=wrap;html=1;" parent="_FC31g5Uvyz9J8IQCSE6-10" vertex="1">
          <mxGeometry y="268" width="266" height="26" as="geometry" />
        </mxCell>
        <mxCell id="_FC31g5Uvyz9J8IQCSE6-24" value="-anyContact(): Boolean" style="text;strokeColor=none;fillColor=none;align=left;verticalAlign=top;spacingLeft=4;spacingRight=4;overflow=hidden;rotatable=0;points=[[0,0.5],[1,0.5]];portConstraint=eastwest;whiteSpace=wrap;html=1;" parent="_FC31g5Uvyz9J8IQCSE6-10" vertex="1">
          <mxGeometry y="294" width="266" height="26" as="geometry" />
        </mxCell>
        <mxCell id="_FC31g5Uvyz9J8IQCSE6-21" value="-write()" style="text;strokeColor=none;fillColor=none;align=left;verticalAlign=top;spacingLeft=4;spacingRight=4;overflow=hidden;rotatable=0;points=[[0,0.5],[1,0.5]];portConstraint=eastwest;whiteSpace=wrap;html=1;" parent="_FC31g5Uvyz9J8IQCSE6-10" vertex="1">
          <mxGeometry y="320" width="266" height="26" as="geometry" />
        </mxCell>
      </root>
    </mxGraphModel>
  </diagram>
</mxfile>
